<svg id="Capa_1" data-name="Capa 1" xmlns="http://www.w3.org/2000/svg" viewBox="0 0 1920 508.63"><defs><style>.cls-1{fill:#ff0;}</style></defs><path class="cls-1" d="M642.35,454.38H618.43q-13.53-.42-4,7.48,17.07,15,16.75,29.08t-16.75,16.85H548.06V485.14H590q14.89.42,3.79-8.32-18.33-16.86-15.59-31t17.28-14.11h46.88Z"/><path class="cls-1" d="M698.45,431.73v22.65H674.32v53.41H649.57V454.38H625.44V431.73Z"/><path class="cls-1" d="M685.91,507.79l25-76.06H748.7l25.44,76.06H745.38l-4.79-13.7H718l-4.79,13.7Zm44-59.21L719,478.71h21Z"/><path class="cls-1" d="M844.16,485.14c-4.29-.77-6.53-1.82-6.74-3.16a3.39,3.39,0,0,1,1.69-1.71,47.15,47.15,0,0,0,5.89-4.56,21.11,21.11,0,0,0,6.64-10q1.9-6-.21-17a25.3,25.3,0,0,0-8.64-11.78q-5.89-4.38-15.07-5.19H778.21v76.07H805.7V487.25l9.91,10.43q9.58,10.43,26,10.11h36V485.14Zm-20.64-19.91H805.7V452.37h17.6c8.12,0,8.12,6.33,8.12,6.33S831.42,465.23,823.52,465.23Z"/><path class="cls-1" d="M992.23,507.79l25-76.06H1055l25.44,76.06H1051.7l-4.8-13.7h-22.59l-4.8,13.7Zm44-59.21-10.9,30.13h21Z"/><path class="cls-1" d="M1084.53,507.79V431.73H1134q9.17.78,15.07,5.18a25.37,25.37,0,0,1,8.64,11.78q2.1,11,.21,17a21.2,21.2,0,0,1-6.64,10,46.13,46.13,0,0,1-5.9,4.56,3.43,3.43,0,0,0-1.69,1.71c.21,1.33,2.46,2.39,6.75,3.16h15.69v22.65H1148q-16.44.31-26-10.11L1112,487.25v20.54ZM1112,452.37v12.86h17.81c7.9,0,7.9-6.53,7.9-6.53s0-6.33-8.11-6.33Z"/><path class="cls-1" d="M1231.39,454.38h-23.92q-13.53-.42-4,7.48,17.07,15,16.75,29.08t-16.75,16.85h-37.3V485.14H1179q14.9.42,3.79-8.32-18.33-16.86-15.59-31t17.28-14.11h46.88Z"/><polygon class="cls-1" points="1002.77 431.72 980.88 506.77 980.58 507.8 953.89 507.8 947.59 482.28 940.15 507.8 913.42 507.8 913.16 506.77 894.61 431.72 921.9 431.72 927.93 456.12 935.05 431.72 962.33 431.72 968.36 456.13 975.47 431.72 1002.77 431.72"/><path class="cls-1" d="M523.63,495.35h-14.4l-2.52,5.87a9.06,9.06,0,0,0-.93,3.23,2.09,2.09,0,0,0,.15.81,1.59,1.59,0,0,0,.62.69,4.19,4.19,0,0,0,1.31.52,15.38,15.38,0,0,0,2.22.32v1H498.37v-1a6.67,6.67,0,0,0,3-1.07,8.53,8.53,0,0,0,1.47-2c.5-.89,1-2,1.63-3.36l13.08-30.61h1l13,30.94a27.93,27.93,0,0,0,1.46,3.08,7.32,7.32,0,0,0,1.39,1.81,3.94,3.94,0,0,0,1.55.89,8.4,8.4,0,0,0,2,.31v1H523.19v-1a9.3,9.3,0,0,0,1.84-.25,3.46,3.46,0,0,0,1.17-.5,1.74,1.74,0,0,0,.6-.68,2,2,0,0,0,.18-.85,4.83,4.83,0,0,0-.26-1.55,22.6,22.6,0,0,0-.84-2.26Zm-.76-2-6.31-15-6.48,15Z"/><path class="cls-1" d="M1289.47,469.76v1a6.74,6.74,0,0,0-1.34.12,3.68,3.68,0,0,0-1.08.42,4.09,4.09,0,0,0-.91.77,8.11,8.11,0,0,0-.85,1.21,35.67,35.67,0,0,0-1.76,4.68l-10.59,30.63h-1.12l-8.66-24.3-8.61,24.3h-1l-11.29-31.56c-.86-2.39-1.39-3.78-1.6-4.17a3.69,3.69,0,0,0-1.51-1.59,5.61,5.61,0,0,0-2.63-.51v-1h14.06v1h-.67a3.36,3.36,0,0,0-2.28.67,2.06,2.06,0,0,0-.77,1.62,7.25,7.25,0,0,0,.29,1.62c.2.75.51,1.72.94,2.89l7.48,21.33,6.31-18.13-2-5.75a17.12,17.12,0,0,0-.91-1.82,5.68,5.68,0,0,0-1.07-1.33,3.92,3.92,0,0,0-1.4-.82,5.72,5.72,0,0,0-1.92-.28v-1h14.8v1h-1a3.41,3.41,0,0,0-2.31.65,2.36,2.36,0,0,0-.71,1.84,18,18,0,0,0,1.26,5l7.28,20.65,7.23-20.93a18.5,18.5,0,0,0,1.24-4.82,1.88,1.88,0,0,0-1.18-1.85,7.35,7.35,0,0,0-3-.53v-1Z"/><path class="cls-1" d="M1301.91,471.83v15h8.35a10.94,10.94,0,0,0,3-.32,3.73,3.73,0,0,0,1.78-1,3.79,3.79,0,0,0,.9-1.72,13.45,13.45,0,0,0,.33-2.47h1v13.23h-1c-.13-.93-.26-1.7-.39-2.28a6,6,0,0,0-.39-1.28,3,3,0,0,0-.65-.88,3.62,3.62,0,0,0-1-.66,5.72,5.72,0,0,0-1.49-.42,13.46,13.46,0,0,0-2-.14h-8.35v12.53a11.87,11.87,0,0,0,.23,3.08,2.25,2.25,0,0,0,.28.47,1.21,1.21,0,0,0,.49.38,2.92,2.92,0,0,0,.84.24,7.9,7.9,0,0,0,1.3.08h6.45q1.65,0,2.76-.09a10.51,10.51,0,0,0,1.93-.34,5,5,0,0,0,1.46-.67,11,11,0,0,0,1.33-1.11,13.84,13.84,0,0,0,1.77-2.16,28.69,28.69,0,0,0,1.79-3.08h1.12l-3.28,9.53H1291.1v-1h1.34a6.33,6.33,0,0,0,1.12-.11,5.15,5.15,0,0,0,1.11-.36,4.29,4.29,0,0,0,.94-.63,2.17,2.17,0,0,0,.59-.89,12.7,12.7,0,0,0,.33-3.67V476.37c0-2.39-.24-3.87-.73-4.45a4.32,4.32,0,0,0-3.36-1.12h-1.34v-1h29.28v8.32h-.67a25,25,0,0,0-.62-2.49,7.17,7.17,0,0,0-.7-1.63,3.47,3.47,0,0,0-.9-1,6.12,6.12,0,0,0-1.2-.69,12.87,12.87,0,0,0-4-.42Z"/><path class="cls-1" d="M1351.49,488.37a15.15,15.15,0,0,1,4,1.37,9.19,9.19,0,0,1,2.68,2.05,7.47,7.47,0,0,1,1.51,2.59,9.21,9.21,0,0,1,.48,3,9,9,0,0,1-.46,2.79,10.21,10.21,0,0,1-1.33,2.61,11,11,0,0,1-2.12,2.21,10.83,10.83,0,0,1-2.82,1.61q-3.11,1.19-9.53,1.18h-17.93v-1h1.43a3.88,3.88,0,0,0,3.42-1.51c.43-.66.64-2,.64-4.18V476.48c0-2.33-.27-3.82-.81-4.45a4.12,4.12,0,0,0-3.25-1.23h-1.43v-1h16.42a32.32,32.32,0,0,1,7.37.67,13.92,13.92,0,0,1,3.71,1.43,10.75,10.75,0,0,1,2.71,2.16,8.53,8.53,0,0,1,1.65,2.73,8.79,8.79,0,0,1,.56,3.15,8.22,8.22,0,0,1-1.73,5.12A10.24,10.24,0,0,1,1351.49,488.37Zm-14.69-1.52a30.05,30.05,0,0,0,5.3.4,16.37,16.37,0,0,0,6.14-.87,7.1,7.1,0,0,0,1.83-1.15,6.81,6.81,0,0,0,1.33-1.57,7.35,7.35,0,0,0,.82-1.88,8.06,8.06,0,0,0,.28-2.1,7.23,7.23,0,0,0-.69-3.1,7.32,7.32,0,0,0-2-2.56,10.24,10.24,0,0,0-3.34-1.74,14.88,14.88,0,0,0-4.59-.64,18.73,18.73,0,0,0-5,.61Zm0,18.16a27.73,27.73,0,0,0,6.42.76,15,15,0,0,0,4.5-.62,9.66,9.66,0,0,0,3.26-1.69,7,7,0,0,0,2-2.52,7.41,7.41,0,0,0,.66-3.1,8.15,8.15,0,0,0-.72-3.41,7.23,7.23,0,0,0-2.18-2.74,11.05,11.05,0,0,0-3.7-1.84,18.27,18.27,0,0,0-5.26-.67c-1.17,0-2.17,0-3,.05a16.34,16.34,0,0,0-2,.2Z"/><path class="cls-1" d="M618.33,89.58V364.82H528.74l-82-102.93V364.82H290.49q-41.94,0-76.63-41l-34.69-41v82H89.59V89.58h89.58v89.59l62.9-89.59h89.59L229.11,227.2,252,255q22.88,27.82,59.47,27.83H357.2V89.58h89.58l82,102.93V89.58Z"/><path class="cls-1" d="M640,89.59h89.59V364.82H640Z"/><path class="cls-1" d="M1292.7,89.58V364.82h-89.58V265.7h-72v99.12h-89.58V171.54H933.92q-29,0-42.89,1.72A110.82,110.82,0,0,0,866.25,179,46,46,0,0,0,847,192.89q-8.38,9.92-9.72,35.07.94,24.4,9.72,34.89a41.7,41.7,0,0,0,21.35,13.91,157,157,0,0,0,25.92,4.76q13.35,1.34,39.65,1.34V227.2h86.15V364.82h-122q-44.79,0-81-15.92T760,301.16q-20.87-31.83-20.87-78,0-32.4,12.48-57.85A117.52,117.52,0,0,1,786.2,123,152.51,152.51,0,0,1,837,97.88a218.86,218.86,0,0,1,61.08-8.3h233v94.93h72V89.58Z"/><path class="cls-1" d="M1729.39,198.61q61.75,54.13,60.61,105.22t-60.61,61H1399.64V171.54h-87.29v-82h264.18v82h-87.3V282.86H1641q53.94,1.53,13.72-30.12-66.33-61-56.42-112.07t62.52-51.09h169.64v82h-86.53Q1694.89,170,1729.39,198.61Z"/><path class="cls-1" d="M1920,44.79V409.61a44.78,44.78,0,0,1-44.79,44.79H1256.93V431.69h606.92a33.44,33.44,0,0,0,33.44-33.44V56.15a33.44,33.44,0,0,0-33.44-33.44H56.15A33.44,33.44,0,0,0,22.71,56.15v342.1a33.44,33.44,0,0,0,33.44,33.44H555.86a48.71,48.71,0,0,0-2.75,9.29,45.6,45.6,0,0,0-.61,13.42H44.79A44.79,44.79,0,0,1,0,409.61V44.79A44.79,44.79,0,0,1,44.79,0H1875.21A44.79,44.79,0,0,1,1920,44.79Z"/></svg>